<?xml version="1.0" encoding="UTF-8"?><svg id="Capa_1" xmlns="http://www.w3.org/2000/svg" viewBox="0 0 855.90391 352.59644"><defs><style>.cls-1{fill:#2c5c9b;}.cls-2{fill:#4e7ec0;}.cls-3{fill:#1d1d1b;}</style></defs><g><path class="cls-3" d="M177.0127,266.60425c-14.93506,0-28.1748-3.73535-39.72461-11.2002-11.55029-7.46484-20.5957-18.13965-27.125-32.02539-6.53516-13.87891-9.80029-30.27441-9.80029-49.1748s3.26514-35.05469,9.80029-48.47461c6.5293-13.41504,15.57471-23.74023,27.125-30.9751,11.5498-7.22998,24.78955-10.8501,39.72461-10.8501,9.56494,0,19.36523,2.39551,29.40039,7.1748,10.0293,4.78516,17.84961,11.96045,23.44971,21.52539V28.60425h53.2002V194.50366c0,8.63574,.40479,18.90039,1.2251,30.80078,.81445,11.89941,2.38965,24.26953,4.72461,37.09961h-50.75l-7-23.4502c-7.23486,10.03516-15.69531,17.15039-25.375,21.35059-9.68506,4.19922-19.31006,6.2998-28.875,6.2998Zm17.15039-41.2998c10.26465,0,19.18945-3.85059,26.7749-11.55078,7.57959-7.69922,11.375-20.5293,11.375-38.5,0-17.72949-3.79541-30.50439-11.375-38.32471-7.58545-7.81494-16.51025-11.7251-26.7749-11.7251-10.5,0-19.54541,4.2002-27.125,12.6001-7.58545,8.3999-11.375,20.53467-11.375,36.3999,0,16.10059,3.78955,28.64551,11.375,37.625,7.57959,8.98535,16.625,13.47559,27.125,13.47559Z"/><path class="cls-3" d="M386.31055,266.60425c-10.97021,0-21-2.10059-30.1001-6.2998-9.1001-4.2002-16.33496-10.08984-21.69971-17.67578-5.37061-7.5791-8.05029-16.625-8.05029-27.125,0-14.22949,4.95459-25.5498,14.875-33.94922,9.91504-8.40039,23.50488-14.7002,40.7749-18.90039,17.26514-4.2002,37.1001-7.11523,59.50049-8.75,0-12.36475-1.98633-21.11475-5.95117-26.25-3.96875-5.12988-11.66992-7.7002-23.09912-7.7002-7.23535,0-13.59521,1.69531-19.0752,5.0752-5.48486,3.38525-9.16016,8.5752-11.0249,15.5752l-44.7998-16.1001c5.82959-11.66504,15.57471-21.3501,29.2251-29.05029,13.6499-7.69971,30.38965-11.5498,50.2251-11.5498,24.72852,0,43.75,5.48535,57.04883,16.4502,13.30078,10.97021,19.95117,29.63477,19.95117,56v38.14941c0,7.4707,.22852,15.52051,.69922,24.15039,.46484,8.63477,1.16602,16.7998,2.09961,24.5,.92969,7.7002,1.98047,14.12012,3.15039,19.25h-49.34961l-6.30078-21c-6.53516,9.09961-14.75977,15.5752-24.67383,19.4248-9.92041,3.85059-21.06055,5.77539-33.42529,5.77539Zm19.6001-36.40039c10.49902,0,19.24902-2.7998,26.24902-8.39941,7-5.60059,10.5-16.33008,10.5-32.2002v-4.2002c-18.43359,1.63477-33.24902,4.14551-44.44922,7.52539-11.19971,3.38477-16.7998,9.625-16.7998,18.72461,0,5.59961,2.32959,10.0957,7,13.47461,4.66455,3.38574,10.5,5.0752,17.5,5.0752Z"/><path class="cls-3" d="M546.60791,262.40405V88.80396h42l9.4502,31.8501c5.36426-14,12.71484-23.7998,22.0498-29.3999,9.33008-5.6001,20.65039-8.05029,33.9502-7.3501v53.2002c-2.7998-.46484-5.25-.75488-7.35059-.875-2.09961-.11523-4.43457-.17529-7-.17529-12.83496,0-22.69531,3.03516-29.57422,9.1001-6.88574,6.07031-10.3252,15.98535-10.3252,29.75v87.5h-53.2002Z"/><path class="cls-3" d="M740.51123,266.60425c-10.9707,0-21-2.10059-30.09961-6.2998-9.10059-4.2002-16.33594-10.08984-21.7002-17.67578-5.37012-7.5791-8.0498-16.625-8.0498-27.125,0-14.22949,4.9541-25.5498,14.875-33.94922,9.91406-8.40039,23.50391-14.7002,40.77441-18.90039,17.26465-4.2002,37.10059-7.11523,59.5-8.75,0-12.36475-1.98535-21.11475-5.9502-26.25-3.96973-5.12988-11.66992-7.7002-23.09961-7.7002-7.23535,0-13.5957,1.69531-19.0752,5.0752-5.48535,3.38525-9.16016,8.5752-11.02441,15.5752l-44.80078-16.1001c5.83008-11.66504,15.5752-21.3501,29.22559-29.05029,13.64941-7.69971,30.38965-11.5498,50.22461-11.5498,24.72949,0,43.75,5.48535,57.0498,16.4502,13.30078,10.97021,19.9502,29.63477,19.9502,56v38.14941c0,7.4707,.22949,15.52051,.7002,24.15039,.46484,8.63477,1.16504,16.7998,2.09961,24.5,.92969,7.7002,1.98047,14.12012,3.15039,19.25h-49.34961l-6.30078-21c-6.53516,9.09961-14.75977,15.5752-24.6748,19.4248-9.91992,3.85059-21.05957,5.77539-33.4248,5.77539Zm19.59961-36.40039c10.5,0,19.25-2.7998,26.25-8.39941,7-5.60059,10.5-16.33008,10.5-32.2002v-4.2002c-18.43457,1.63477-33.25,4.14551-44.44922,7.52539-11.2002,3.38477-16.80078,9.625-16.80078,18.72461,0,5.59961,2.33008,10.0957,7,13.47461,4.66504,3.38574,10.5,5.0752,17.5,5.0752Z"/><rect class="cls-3" x="5.51709" y="88.80396" width="53.55029" height="173.6001"/></g><circle class="cls-2" cx="32.29224" cy="29.00366" r="29.00366"/><ellipse class="cls-1" cx="22.3255" cy="28.62866" rx="17.45087" ry="25.625"/><g><path class="cls-3" d="M0,344.53198v-3.1084H3.94824v-21.83984H0v-3.10742H11.84424v3.10742h-3.94824v21.83984h3.94824v3.1084H0Z"/><path class="cls-3" d="M18.01709,344.53198v-20.83203h2.604l.92383,3.15039c.58838-.98047,1.41357-1.80664,2.47803-2.47852,1.06396-.67188,2.47803-1.00781,4.24219-1.00781,2.52002,0,4.29785,.73535,5.33398,2.20508,1.03564,1.46973,1.5542,3.39551,1.5542,5.77441v13.18848h-3.52832v-12.1377c0-1.06445-.09814-2.05078-.29395-2.96094-.19629-.91016-.62354-1.64453-1.28076-2.20508-.6582-.56055-1.65918-.83984-3.00293-.83984-1.7085,0-3.05225,.58105-4.03223,1.74219-.98047,1.16211-1.47021,2.86328-1.47021,5.10352v11.29785h-3.52783Z"/><path class="cls-3" d="M47.20752,344.53198c-1.31689,0-2.33105-.13281-3.04541-.39941-.71387-.26562-1.2041-.77637-1.46973-1.53223-.2666-.75684-.39893-1.84863-.39893-3.27637v-12.80957h-3.52832v-2.81445h3.52832v-5.25h3.52783v5.25h4.03223v2.81445h-4.03223v12.22168c0,1.06445,.10498,1.77832,.31494,2.1416,.20996,.36426,.81885,.5459,1.82715,.5459h1.89014v3.1084h-2.646Z"/><path class="cls-3" d="M63.79688,345.03589c-2.18359,0-4.03174-.48242-5.54395-1.44922-1.51172-.96582-2.66699-2.26758-3.46484-3.90527-.79785-1.63867-1.19678-3.47949-1.19678-5.52344,0-2.21191,.44727-4.12207,1.34375-5.7334,.896-1.60938,2.10645-2.85547,3.6333-3.7373,1.52539-.88184,3.24023-1.32324,5.14453-1.32324,1.65186,0,3.1084,.3291,4.36816,.9873,1.26025,.6582,2.30273,1.54004,3.12891,2.64551,.82568,1.10645,1.42822,2.35938,1.80615,3.75879,.37793,1.40039,.51074,2.84277,.39893,4.32617h-16.04395c.05566,1.73633,.44092,3.1084,1.15479,4.11621,.71436,1.00781,1.56104,1.71582,2.54102,2.12109,.97998,.40625,1.89014,.60938,2.72998,.60938,1.17627,0,2.16309-.18945,2.96143-.56738,.79785-.37793,1.43457-.875,1.91064-1.49121l3.40234,1.00781c-.75635,1.2041-1.83447,2.19922-3.23438,2.98242-1.40039,.7832-3.08008,1.17578-5.04004,1.17578Zm-6.38379-12.76758h12.26416c0-.98047-.24561-1.91797-.73535-2.81445-.49023-.89551-1.17578-1.63086-2.05762-2.20508-.88232-.57324-1.93945-.86035-3.17139-.86035-1.03613,0-2.01562,.19531-2.93994,.58789-.92383,.39258-1.68701,1.02246-2.28906,1.88965-.60205,.86816-.95898,2.00195-1.0708,3.40234Z"/><path class="cls-3" d="M82.94824,344.53198c-1.31641,0-2.33105-.13281-3.04492-.39941-.71387-.26562-1.2041-.77637-1.47021-1.53223-.26611-.75684-.39893-1.84863-.39893-3.27637v-22.80566h3.52783v22.21777c0,1.06445,.11182,1.77832,.33643,2.1416,.22363,.36426,.8252,.5459,1.80566,.5459h.79834v3.1084h-1.5542Z"/><path class="cls-3" d="M93.44824,344.53198c-1.31641,0-2.33105-.13281-3.04492-.39941-.71387-.26562-1.2041-.77637-1.47021-1.53223-.26611-.75684-.39893-1.84863-.39893-3.27637v-22.80566h3.52783v22.21777c0,1.06445,.11182,1.77832,.33643,2.1416,.22363,.36426,.8252,.5459,1.80566,.5459h.79834v3.1084h-1.5542Z"/><path class="cls-3" d="M100.08447,344.53198v-18.01758h-2.89795v-2.81445h6.42578v20.83203h-3.52783Zm1.76367-24.78027c-.7002,0-1.30908-.25781-1.82666-.77637-.51855-.51855-.77686-1.14062-.77686-1.86914,0-.72754,.2583-1.34375,.77686-1.84863,.51758-.50391,1.12646-.75586,1.82666-.75586,.72803,0,1.35059,.25195,1.86914,.75586,.51807,.50488,.77734,1.12109,.77734,1.84863,0,.72852-.25928,1.35059-.77734,1.86914-.51855,.51855-1.14111,.77637-1.86914,.77637Z"/><path class="cls-3" d="M118.94189,352.59644c-1.12012,0-2.23291-.16211-3.33887-.4834-1.10645-.32227-2.08594-.84766-2.93994-1.5752-.85449-.72852-1.46338-1.66602-1.82715-2.81348l3.52832-.9668c.3916,1.09277,1.03516,1.82031,1.93164,2.18457,.896,.36328,1.77783,.5459,2.646,.5459,2.15576,0,3.61865-.51855,4.38916-1.55371,.77002-1.03613,1.15479-2.5625,1.15479-4.57812v-2.77246c-.64404,1.0918-1.49805,1.96094-2.56152,2.60449-1.06445,.64453-2.42236,.96582-4.07422,.96582-1.54004,0-2.98193-.39941-4.32617-1.19727-1.34375-.79785-2.4292-1.97363-3.25488-3.52734-.82617-1.55469-1.23877-3.4375-1.23877-5.64941,0-2.24023,.4126-4.12988,1.23877-5.66992,.82568-1.54004,1.91113-2.71582,3.25488-3.52832,1.34424-.81152,2.78613-1.21777,4.32617-1.21777,1.65186,0,3.00977,.3291,4.07422,.9873,1.06348,.6582,1.91748,1.53223,2.56152,2.625l.96631-3.27637h2.56201v18.8584c0,3.30273-.66553,5.80176-1.99512,7.49707-1.33008,1.69336-3.68945,2.54102-7.07715,2.54102Zm-.20996-11.38281c1.06396,0,2.03711-.25195,2.91895-.75586,.88232-.50391,1.59619-1.30176,2.14209-2.39355s.81934-2.52051,.81934-4.28418-.27344-3.19238-.81934-4.28418-1.25977-1.88281-2.14209-2.37305c-.88184-.48926-1.85498-.73438-2.91895-.73438-1.70801,0-3.11523,.63672-4.2207,1.91016-1.10645,1.27441-1.65918,3.10156-1.65918,5.48145s.55273,4.21484,1.65918,5.50195c1.10547,1.28809,2.5127,1.93164,4.2207,1.93164Z"/><path class="cls-3" d="M143.21777,345.03589c-2.18359,0-4.03174-.48242-5.54395-1.44922-1.51172-.96582-2.66699-2.26758-3.46484-3.90527-.79785-1.63867-1.19678-3.47949-1.19678-5.52344,0-2.21191,.44727-4.12207,1.34375-5.7334,.896-1.60938,2.10645-2.85547,3.6333-3.7373,1.52539-.88184,3.24023-1.32324,5.14453-1.32324,1.65186,0,3.1084,.3291,4.36816,.9873,1.26025,.6582,2.30273,1.54004,3.12891,2.64551,.82568,1.10645,1.42822,2.35938,1.80615,3.75879,.37793,1.40039,.51074,2.84277,.39893,4.32617h-16.04395c.05566,1.73633,.44092,3.1084,1.15479,4.11621,.71436,1.00781,1.56104,1.71582,2.54102,2.12109,.97998,.40625,1.89014,.60938,2.72998,.60938,1.17627,0,2.16309-.18945,2.96143-.56738,.79785-.37793,1.43457-.875,1.91064-1.49121l3.40234,1.00781c-.75635,1.2041-1.83447,2.19922-3.23438,2.98242-1.40039,.7832-3.08008,1.17578-5.04004,1.17578Zm-6.38379-12.76758h12.26416c0-.98047-.24561-1.91797-.73535-2.81445-.49023-.89551-1.17578-1.63086-2.05762-2.20508-.88232-.57324-1.93945-.86035-3.17139-.86035-1.03613,0-2.01562,.19531-2.93994,.58789-.92383,.39258-1.68701,1.02246-2.28906,1.88965-.60205,.86816-.95898,2.00195-1.0708,3.40234Z"/><path class="cls-3" d="M157.45557,344.53198v-20.83203h2.604l.92383,3.15039c.58838-.98047,1.41357-1.80664,2.47803-2.47852,1.06396-.67188,2.47803-1.00781,4.24219-1.00781,2.52002,0,4.29785,.73535,5.33398,2.20508,1.03564,1.46973,1.5542,3.39551,1.5542,5.77441v13.18848h-3.52832v-12.1377c0-1.06445-.09814-2.05078-.29395-2.96094-.19629-.91016-.62354-1.64453-1.28076-2.20508-.6582-.56055-1.65918-.83984-3.00293-.83984-1.7085,0-3.05225,.58105-4.03223,1.74219-.98047,1.16211-1.47021,2.86328-1.47021,5.10352v11.29785h-3.52783Z"/><path class="cls-3" d="M188.74561,345.03589c-1.98828,0-3.71045-.46875-5.16602-1.40723-1.45605-.9375-2.57617-2.21875-3.35986-3.84277-.78418-1.62305-1.17578-3.48633-1.17578-5.58594,0-2.07129,.4126-3.92676,1.23877-5.56543,.82568-1.6377,1.99512-2.9248,3.50684-3.86328,1.51221-.93848,3.29004-1.40723,5.33398-1.40723,1.87598,0,3.48633,.46191,4.83008,1.38574,1.34424,.92383,2.35205,2.03027,3.02393,3.31836l-3.23389,1.17578c-.44824-.83984-1.10645-1.51172-1.97412-2.01562-.86816-.50391-1.83398-.75586-2.89795-.75586-1.03613,0-2.01562,.27246-2.93994,.81836-.92383,.5459-1.66602,1.38574-2.22607,2.52051-.56006,1.13379-.83984,2.58301-.83984,4.34668,0,1.73633,.28662,3.18555,.86084,4.34668,.57373,1.16211,1.31592,2.02344,2.22607,2.58301,.90967,.56055,1.88281,.84082,2.91895,.84082,1.14795,0,2.14893-.25879,3.00293-.77734,.854-.51758,1.50488-1.16895,1.95312-1.95312l3.23389,1.17578c-.78418,1.34375-1.9043,2.45703-3.35986,3.33887-1.45605,.88281-3.10791,1.32324-4.95605,1.32324Z"/><path class="cls-3" d="M210.71143,345.03589c-2.18359,0-4.03174-.48242-5.54395-1.44922-1.51172-.96582-2.66699-2.26758-3.46484-3.90527-.79785-1.63867-1.19678-3.47949-1.19678-5.52344,0-2.21191,.44727-4.12207,1.34375-5.7334,.896-1.60938,2.10645-2.85547,3.6333-3.7373,1.52539-.88184,3.24023-1.32324,5.14453-1.32324,1.65186,0,3.1084,.3291,4.36816,.9873,1.26025,.6582,2.30273,1.54004,3.12891,2.64551,.82568,1.10645,1.42822,2.35938,1.80615,3.75879,.37793,1.40039,.51074,2.84277,.39893,4.32617h-16.04395c.05566,1.73633,.44092,3.1084,1.15479,4.11621,.71436,1.00781,1.56104,1.71582,2.54102,2.12109,.97998,.40625,1.89014,.60938,2.72998,.60938,1.17627,0,2.16309-.18945,2.96143-.56738,.79785-.37793,1.43457-.875,1.91064-1.49121l3.40234,1.00781c-.75635,1.2041-1.83447,2.19922-3.23438,2.98242-1.40039,.7832-3.08008,1.17578-5.04004,1.17578Zm-6.38379-12.76758h12.26416c0-.98047-.24561-1.91797-.73535-2.81445-.49023-.89551-1.17578-1.63086-2.05762-2.20508-.88232-.57324-1.93945-.86035-3.17139-.86035-1.03613,0-2.01562,.19531-2.93994,.58789-.92383,.39258-1.68701,1.02246-2.28906,1.88965-.60205,.86816-.95898,2.00195-1.0708,3.40234Z"/><path class="cls-3" d="M237.42236,344.53198v-28.05566h7.64404c2.23975,0,4.29053,.23047,6.15283,.69238,1.86182,.46191,3.479,1.22559,4.85107,2.28906,1.37158,1.06445,2.43604,2.49902,3.19238,4.30566,.75586,1.80566,1.13379,4.03906,1.13379,6.69824,0,2.68848-.37793,4.93555-1.13379,6.74121-.75635,1.80566-1.8208,3.24902-3.19238,4.32617-1.37207,1.07812-2.98926,1.84766-4.85107,2.30957-1.8623,.46191-3.91309,.69336-6.15283,.69336h-7.64404Zm3.94824-3.31836h3.61182c1.45557,0,2.86279-.11816,4.22119-.35645,1.35742-.2373,2.57568-.71387,3.65381-1.42773,1.07764-.71484,1.93213-1.79199,2.56201-3.23438,.62988-1.44141,.94482-3.35254,.94482-5.7334,0-2.37891-.31494-4.27637-.94482-5.69043s-1.48438-2.47852-2.56201-3.19238c-1.07812-.71387-2.29639-1.18945-3.65381-1.42773-1.3584-.2373-2.76562-.35742-4.22119-.35742h-3.61182v21.41992Z"/><path class="cls-3" d="M267.74609,344.53198v-18.01758h-2.89795v-2.81445h6.42578v20.83203h-3.52783Zm1.76367-24.78027c-.7002,0-1.30908-.25781-1.82666-.77637-.51855-.51855-.77686-1.14062-.77686-1.86914,0-.72754,.2583-1.34375,.77686-1.84863,.51758-.50391,1.12646-.75586,1.82666-.75586,.72803,0,1.35059,.25195,1.86914,.75586,.51807,.50488,.77734,1.12109,.77734,1.84863,0,.72852-.25928,1.35059-.77734,1.86914-.51855,.51855-1.14111,.77637-1.86914,.77637Z"/><path class="cls-3" d="M286.604,352.59644c-1.12012,0-2.23291-.16211-3.33887-.4834-1.10645-.32227-2.08594-.84766-2.93994-1.5752-.85449-.72852-1.46338-1.66602-1.82715-2.81348l3.52832-.9668c.3916,1.09277,1.03516,1.82031,1.93164,2.18457,.896,.36328,1.77783,.5459,2.646,.5459,2.15576,0,3.61865-.51855,4.38916-1.55371,.77002-1.03613,1.15479-2.5625,1.15479-4.57812v-2.77246c-.64404,1.0918-1.49805,1.96094-2.56152,2.60449-1.06445,.64453-2.42236,.96582-4.07422,.96582-1.54004,0-2.98193-.39941-4.32617-1.19727-1.34375-.79785-2.4292-1.97363-3.25488-3.52734-.82617-1.55469-1.23877-3.4375-1.23877-5.64941,0-2.24023,.4126-4.12988,1.23877-5.66992,.82568-1.54004,1.91113-2.71582,3.25488-3.52832,1.34424-.81152,2.78613-1.21777,4.32617-1.21777,1.65186,0,3.00977,.3291,4.07422,.9873,1.06348,.6582,1.91748,1.53223,2.56152,2.625l.96631-3.27637h2.56201v18.8584c0,3.30273-.66553,5.80176-1.99512,7.49707-1.33008,1.69336-3.68945,2.54102-7.07715,2.54102Zm-.20996-11.38281c1.06396,0,2.03711-.25195,2.91895-.75586,.88232-.50391,1.59619-1.30176,2.14209-2.39355s.81934-2.52051,.81934-4.28418-.27344-3.19238-.81934-4.28418-1.25977-1.88281-2.14209-2.37305c-.88184-.48926-1.85498-.73438-2.91895-.73438-1.70801,0-3.11523,.63672-4.2207,1.91016-1.10645,1.27441-1.65918,3.10156-1.65918,5.48145s.55273,4.21484,1.65918,5.50195c1.10547,1.28809,2.5127,1.93164,4.2207,1.93164Z"/><path class="cls-3" d="M310.87988,345.03589c-2.18359,0-4.03174-.48242-5.54395-1.44922-1.51172-.96582-2.66699-2.26758-3.46484-3.90527-.79785-1.63867-1.19678-3.47949-1.19678-5.52344,0-2.21191,.44727-4.12207,1.34375-5.7334,.896-1.60938,2.10645-2.85547,3.6333-3.7373,1.52539-.88184,3.24023-1.32324,5.14453-1.32324,1.65186,0,3.1084,.3291,4.36816,.9873,1.26025,.6582,2.30273,1.54004,3.12891,2.64551,.82568,1.10645,1.42822,2.35938,1.80615,3.75879,.37793,1.40039,.51074,2.84277,.39893,4.32617h-16.04395c.05566,1.73633,.44092,3.1084,1.15479,4.11621,.71436,1.00781,1.56104,1.71582,2.54102,2.12109,.97998,.40625,1.89014,.60938,2.72998,.60938,1.17627,0,2.16309-.18945,2.96143-.56738,.79785-.37793,1.43457-.875,1.91064-1.49121l3.40234,1.00781c-.75635,1.2041-1.83447,2.19922-3.23438,2.98242-1.40039,.7832-3.08008,1.17578-5.04004,1.17578Zm-6.38379-12.76758h12.26416c0-.98047-.24561-1.91797-.73535-2.81445-.49023-.89551-1.17578-1.63086-2.05762-2.20508-.88232-.57324-1.93945-.86035-3.17139-.86035-1.03613,0-2.01562,.19531-2.93994,.58789-.92383,.39258-1.68701,1.02246-2.28906,1.88965-.60205,.86816-.95898,2.00195-1.0708,3.40234Z"/><path class="cls-3" d="M332.21533,345.03589c-1.2041,0-2.3877-.18848-3.54932-.56738-1.16211-.37793-2.19824-.95117-3.10791-1.72168-.91016-.76953-1.60303-1.74316-2.0791-2.91895l3.40234-1.25977c.30762,1.23242,.98682,2.12109,2.03711,2.66699,1.0498,.5459,2.14844,.81934,3.29688,.81934,.83984,0,1.63086-.12598,2.37305-.37891,.74121-.25195,1.35059-.61523,1.82666-1.0918,.47607-.47559,.71436-1.02148,.71436-1.6377,0-1.14746-.45557-1.95996-1.36523-2.43652-.91016-.47559-1.99512-.83984-3.25488-1.0918l-2.89795-.58789c-1.0083-.22363-1.94629-.53906-2.81396-.94531-.86816-.40527-1.56836-.98633-2.1001-1.74219-.53223-.75684-.79785-1.76465-.79785-3.02441s.3916-2.31641,1.17578-3.1709c.78369-.85352,1.78516-1.50488,3.00293-1.95312,1.21826-.44727,2.49902-.67188,3.84326-.67188,1.65186,0,3.21289,.34277,4.68262,1.0293,1.47021,.68652,2.51318,1.75684,3.12939,3.21289l-3.31836,1.21777c-.36377-.83984-1.00146-1.46289-1.91064-1.86914-.91016-.40527-1.85547-.6084-2.83496-.6084-1.06445,0-2.03076,.2373-2.89795,.71387-.86865,.47656-1.30225,1.16211-1.30225,2.05762,0,.89648,.37061,1.54785,1.11279,1.95312,.7417,.40625,1.65918,.7207,2.75098,.94531l2.73047,.5459c1.11914,.22461,2.18359,.5459,3.19189,.96582,1.00781,.41992,1.8335,1.04297,2.47803,1.86914,.64355,.82617,.96582,1.98145,.96582,3.46484,0,1.31641-.40625,2.43555-1.21777,3.36035-.8125,.92383-1.86279,1.63086-3.15039,2.12012-1.28809,.49023-2.66016,.73535-4.11572,.73535Z"/><path class="cls-3" d="M351.70264,344.53198c-1.31641,0-2.33008-.13281-3.04492-.39941-.71387-.26562-1.2041-.77637-1.46973-1.53223-.2666-.75684-.39893-1.84863-.39893-3.27637v-12.80957h-3.52832v-2.81445h3.52832v-5.25h3.52881v5.25h4.03125v2.81445h-4.03125v12.22168c0,1.06445,.10352,1.77832,.31445,2.1416,.20898,.36426,.81836,.5459,1.82617,.5459h1.89062v3.1084h-2.64648Z"/><path class="cls-3" d="M361.27881,344.53198v-18.01758h-2.89844v-2.81445h6.42676v20.83203h-3.52832Zm1.76367-24.78027c-.7002,0-1.30859-.25781-1.82715-.77637-.51758-.51855-.77637-1.14062-.77637-1.86914,0-.72754,.25879-1.34375,.77637-1.84863,.51855-.50391,1.12695-.75586,1.82715-.75586,.72754,0,1.35059,.25195,1.86914,.75586,.51758,.50488,.77734,1.12109,.77734,1.84863,0,.72852-.25977,1.35059-.77734,1.86914-.51855,.51855-1.1416,.77637-1.86914,.77637Z"/><path class="cls-3" d="M376.06201,344.53198l-7.43359-20.83203h3.82227l5.45996,16.21191,5.41797-16.21191h3.82227l-7.43457,20.83203h-3.6543Z"/><path class="cls-3" d="M399.41357,345.03589c-2.18359,0-4.03223-.48242-5.54395-1.44922-1.51172-.96582-2.66699-2.26758-3.46484-3.90527-.79785-1.63867-1.19727-3.47949-1.19727-5.52344,0-2.21191,.44824-4.12207,1.34473-5.7334,.89551-1.60938,2.10645-2.85547,3.63281-3.7373,1.52539-.88184,3.24023-1.32324,5.14453-1.32324,1.65234,0,3.1084,.3291,4.36816,.9873s2.30273,1.54004,3.12891,2.64551c.82617,1.10645,1.42773,2.35938,1.80664,3.75879,.37793,1.40039,.50977,2.84277,.39844,4.32617h-16.04395c.05566,1.73633,.44141,3.1084,1.15527,4.11621s1.56055,1.71582,2.54102,2.12109c.97949,.40625,1.88965,.60938,2.72949,.60938,1.17578,0,2.16309-.18945,2.96094-.56738s1.43457-.875,1.91113-1.49121l3.40234,1.00781c-.75586,1.2041-1.83398,2.19922-3.23438,2.98242s-3.08008,1.17578-5.04004,1.17578Zm-6.38379-12.76758h12.26367c0-.98047-.24512-1.91797-.73438-2.81445-.49023-.89551-1.17578-1.63086-2.05859-2.20508-.88184-.57324-1.93848-.86035-3.1709-.86035-1.03613,0-2.01562,.19531-2.93945,.58789-.9248,.39258-1.6875,1.02246-2.28906,1.88965-.60254,.86816-.95996,2.00195-1.07129,3.40234Z"/><path class="cls-3" d="M433.979,345.03589c-1.93164,0-3.60547-.36426-5.01855-1.0918-1.41504-.72754-2.50684-1.70801-3.27637-2.94043-.77051-1.23145-1.15527-2.61719-1.15527-4.15723,0-2.15625,.6582-3.94141,1.97461-5.35547,1.31543-1.41309,3.05078-2.48438,5.20801-3.21289-.95215-1.06348-1.70898-2.11426-2.26855-3.15039-.56055-1.03516-.83984-2.09961-.83984-3.19141,0-1.82031,.7207-3.26953,2.16309-4.34766,1.44141-1.07715,3.26855-1.61621,5.48145-1.61621,1.14746,0,2.28125,.18848,3.40137,.56641s2.05078,1.00781,2.79297,1.89062c.74219,.88184,1.11328,2.07812,1.11328,3.59082,0,1.76367-.5459,3.2334-1.6377,4.41016-1.09277,1.17578-2.50684,2.12793-4.24219,2.85547l5.71191,6.04785c.36328-.86719,.67188-1.79883,.92383-2.79297,.25195-.99316,.41992-2.05078,.50391-3.1709h3.6543c-.1123,1.51172-.38574,3.00293-.81934,4.47266-.43457,1.4707-1.02832,2.83594-1.78516,4.0957l6.25879,6.59375h-4.99805l-3.44434-3.6543c-1.2041,1.28809-2.61816,2.30371-4.24219,3.04492-1.62402,.74219-3.44434,1.11328-5.45996,1.11328Zm0-3.10742c1.4834,0,2.85645-.29492,4.11621-.88281s2.36523-1.42773,3.31836-2.51953l-7.60254-8.02246c-1.67969,.58789-3.01758,1.37207-4.01074,2.35254-.99414,.98047-1.49121,2.25391-1.49121,3.82227,0,1.06348,.26562,1.99414,.79785,2.79297,.53125,.79785,1.23242,1.40625,2.10059,1.82617,.86719,.41992,1.79102,.63086,2.77148,.63086Zm1.55371-14.82617c1.37207-.50391,2.47852-1.16211,3.31836-1.97461,.83984-.81152,1.25977-1.77734,1.25977-2.89746,0-1.14844-.37109-1.95996-1.1123-2.43652-.74219-.47559-1.63184-.71387-2.66699-.71387-1.03711,0-1.95312,.22461-2.75098,.67188-.79883,.44824-1.19727,1.14844-1.19727,2.10059,0,.75586,.23047,1.50488,.69238,2.24707,.46289,.74219,.95215,1.37891,1.4707,1.91016,.51758,.53223,.84668,.89648,.98633,1.09277Z"/><path class="cls-3" d="M465.646,344.53198l10.54199-28.09766h4.41016l10.5,28.09766h-4.2002l-2.1416-6.13184h-12.76855l-2.1416,6.13184h-4.2002Zm7.56055-9.53418h10.33105l-5.16504-14.57422-5.16602,14.57422Z"/><path class="cls-3" d="M494.75244,344.53198v-3.1084h3.94727v-21.83984h-3.94727v-3.10742h11.84375v3.10742h-3.94824v21.83984h3.94824v3.1084h-11.84375Z"/><path class="cls-3" d="M525.24365,344.53198v-28.05566h8.90332c2.2959,0,4.31934,.20312,6.06934,.6084,1.75,.40625,3.12207,1.19043,4.11621,2.35254,.99316,1.16211,1.49121,2.86328,1.49121,5.10254,0,1.25977-.19629,2.43652-.58887,3.52832-.3916,1.0918-1.14062,2.01562-2.24707,2.77148-1.10645,.75684-2.75098,1.28906-4.93457,1.59668l8.69434,12.0957h-4.83008l-8.52637-11.80176h-4.2002v11.80176h-3.94727Zm3.94727-15.12012h5.25c1.37207,0,2.61133-.09766,3.71777-.29395,1.10547-.19531,1.9873-.63672,2.64551-1.32324,.65723-.68555,.9873-1.74316,.9873-3.1709,0-1.45508-.33008-2.51953-.9873-3.19141-.6582-.67285-1.54004-1.11328-2.64551-1.32324-1.10645-.20996-2.3457-.31543-3.71777-.31543h-5.25v9.61816Z"/><path class="cls-3" d="M560.27197,345.03589c-2.18359,0-4.03223-.48242-5.54395-1.44922-1.51172-.96582-2.66699-2.26758-3.46484-3.90527-.79785-1.63867-1.19727-3.47949-1.19727-5.52344,0-2.21191,.44824-4.12207,1.34473-5.7334,.89551-1.60938,2.10645-2.85547,3.63281-3.7373,1.52539-.88184,3.24023-1.32324,5.14453-1.32324,1.65234,0,3.1084,.3291,4.36816,.9873s2.30273,1.54004,3.12891,2.64551c.82617,1.10645,1.42773,2.35938,1.80664,3.75879,.37793,1.40039,.50977,2.84277,.39844,4.32617h-16.04395c.05566,1.73633,.44141,3.1084,1.15527,4.11621s1.56055,1.71582,2.54102,2.12109c.97949,.40625,1.88965,.60938,2.72949,.60938,1.17578,0,2.16309-.18945,2.96094-.56738s1.43457-.875,1.91113-1.49121l3.40234,1.00781c-.75586,1.2041-1.83398,2.19922-3.23438,2.98242s-3.08008,1.17578-5.04004,1.17578Zm-6.38379-12.76758h12.26367c0-.98047-.24512-1.91797-.73438-2.81445-.49023-.89551-1.17578-1.63086-2.05859-2.20508-.88184-.57324-1.93848-.86035-3.1709-.86035-1.03613,0-2.01562,.19531-2.93945,.58789-.9248,.39258-1.6875,1.02246-2.28906,1.88965-.60254,.86816-.95996,2.00195-1.07129,3.40234Z"/><path class="cls-3" d="M581.60791,345.03589c-1.2041,0-2.3877-.18848-3.54883-.56738-1.16211-.37793-2.19824-.95117-3.1084-1.72168-.91016-.76953-1.60352-1.74316-2.0791-2.91895l3.40234-1.25977c.30762,1.23242,.9873,2.12109,2.03711,2.66699s2.14844,.81934,3.29688,.81934c.83984,0,1.63086-.12598,2.37305-.37891,.74121-.25195,1.35059-.61523,1.82715-1.0918,.47559-.47559,.71387-1.02148,.71387-1.6377,0-1.14746-.45605-1.95996-1.36523-2.43652-.91016-.47559-1.99512-.83984-3.25488-1.0918l-2.89844-.58789c-1.00781-.22363-1.94629-.53906-2.81348-.94531-.86816-.40527-1.56836-.98633-2.10059-1.74219-.53223-.75684-.79785-1.76465-.79785-3.02441s.39258-2.31641,1.17676-3.1709c.7832-.85352,1.78418-1.50488,3.00293-1.95312,1.21777-.44727,2.49902-.67188,3.84277-.67188,1.65137,0,3.21289,.34277,4.68262,1.0293,1.4707,.68652,2.5127,1.75684,3.12891,3.21289l-3.31738,1.21777c-.36426-.83984-1.00195-1.46289-1.91113-1.86914-.91016-.40527-1.85547-.6084-2.83496-.6084-1.06445,0-2.03027,.2373-2.89844,.71387s-1.30176,1.16211-1.30176,2.05762c0,.89648,.37109,1.54785,1.11328,1.95312,.74121,.40625,1.65918,.7207,2.75098,.94531l2.72949,.5459c1.12012,.22461,2.18457,.5459,3.19238,.96582s1.83301,1.04297,2.47754,1.86914,.9668,1.98145,.9668,3.46484c0,1.31641-.40625,2.43555-1.21875,3.36035-.8125,.92383-1.8623,1.63086-3.14941,2.12012-1.28809,.49023-2.66113,.73535-4.11621,.73535Z"/><path class="cls-3" d="M603.61475,345.03589c-2.18359,0-4.03223-.48242-5.54395-1.44922-1.51172-.96582-2.66699-2.26758-3.46484-3.90527-.79785-1.63867-1.19727-3.47949-1.19727-5.52344,0-2.21191,.44824-4.12207,1.34473-5.7334,.89551-1.60938,2.10645-2.85547,3.63281-3.7373,1.52539-.88184,3.24023-1.32324,5.14453-1.32324,1.65234,0,3.1084,.3291,4.36816,.9873s2.30273,1.54004,3.12891,2.64551c.82617,1.10645,1.42773,2.35938,1.80664,3.75879,.37793,1.40039,.50977,2.84277,.39844,4.32617h-16.04395c.05566,1.73633,.44141,3.1084,1.15527,4.11621s1.56055,1.71582,2.54102,2.12109c.97949,.40625,1.88965,.60938,2.72949,.60938,1.17578,0,2.16309-.18945,2.96094-.56738s1.43457-.875,1.91113-1.49121l3.40234,1.00781c-.75586,1.2041-1.83398,2.19922-3.23438,2.98242s-3.08008,1.17578-5.04004,1.17578Zm-6.38379-12.76758h12.26367c0-.98047-.24512-1.91797-.73438-2.81445-.49023-.89551-1.17578-1.63086-2.05859-2.20508-.88184-.57324-1.93848-.86035-3.1709-.86035-1.03613,0-2.01562,.19531-2.93945,.58789-.9248,.39258-1.6875,1.02246-2.28906,1.88965-.60254,.86816-.95996,2.00195-1.07129,3.40234Z"/><path class="cls-3" d="M623.69092,345.03589c-1.31641,0-2.52051-.23828-3.6123-.71387s-1.95996-1.16113-2.60449-2.05762c-.64355-.89648-.96582-1.97461-.96582-3.23438,0-1.65137,.58105-2.9541,1.74316-3.90625,1.16211-.95117,2.7998-1.68652,4.91406-2.20508,2.11426-.51758,4.58496-.93066,7.41309-1.23828,.05566-1.76465-.29395-3.12207-1.0498-4.07422s-1.97461-1.42773-3.6543-1.42773c-1.25977,0-2.28906,.28711-3.08691,.86035-.79785,.57422-1.30957,1.36523-1.5332,2.37305l-3.40137-1.00781c.55957-1.5957,1.56055-2.83496,3.00293-3.7168,1.44141-.88184,3.10059-1.32324,4.97656-1.32324,2.88379,0,4.99121,.67871,6.32129,2.03711,1.3291,1.3584,1.99512,3.49316,1.99512,6.40527v4.87207c0,1.73633,.06934,3.2334,.20996,4.49316,.13965,1.26074,.30762,2.38086,.50391,3.36035h-3.23438l-.83984-2.85645c-.61621,1.03711-1.49805,1.85547-2.64551,2.45703-1.14844,.60254-2.63281,.90332-4.45215,.90332Zm.75586-2.81348c1.0918,0,2.12695-.19629,3.10742-.58887,.98047-.3916,1.77832-1.05566,2.39453-1.99414,.61523-.93848,.92383-2.21875,.92383-3.84375v-1.30176c-2.12793,.22461-3.97656,.49707-5.54395,.81934-1.56836,.32227-2.7793,.77051-3.63281,1.34375-.85449,.57422-1.28125,1.33789-1.28125,2.28906,0,.98047,.35742,1.77148,1.07129,2.37305,.71387,.60254,1.70117,.90332,2.96094,.90332Z"/><path class="cls-3" d="M640.40674,344.53198v-20.83203h2.56152l1.13379,3.86426c.72852-1.25977,1.71484-2.27441,2.96094-3.04492s2.7373-1.15527,4.47363-1.15527v3.6543h-.60938c-.20996,0-.41309,.01367-.60938,.04199-2.37988,.19629-4.03906,1.02246-4.97656,2.47754-.93848,1.45605-1.40723,3.47266-1.40723,6.04785v8.94629h-3.52734Z"/><path class="cls-3" d="M663.50635,345.03589c-1.98828,0-3.70996-.46875-5.16602-1.40723-1.45605-.9375-2.57617-2.21875-3.35938-3.84277-.78516-1.62305-1.17676-3.48633-1.17676-5.58594,0-2.07129,.41309-3.92676,1.23926-5.56543,.8252-1.6377,1.99512-2.9248,3.50684-3.86328s3.29004-1.40723,5.33398-1.40723c1.87598,0,3.48633,.46191,4.83008,1.38574s2.35254,2.03027,3.02441,3.31836l-3.23438,1.17578c-.44824-.83984-1.10645-1.51172-1.97363-2.01562-.86816-.50391-1.83496-.75586-2.89844-.75586-1.03613,0-2.01562,.27246-2.93945,.81836-.9248,.5459-1.66699,1.38574-2.22656,2.52051-.56055,1.13379-.83984,2.58301-.83984,4.34668,0,1.73633,.28711,3.18555,.86133,4.34668,.57324,1.16211,1.31543,2.02344,2.22559,2.58301,.91016,.56055,1.88281,.84082,2.91895,.84082,1.14844,0,2.14844-.25879,3.00293-.77734,.85449-.51758,1.50488-1.16895,1.95312-1.95312l3.23438,1.17578c-.78418,1.34375-1.9043,2.45703-3.36035,3.33887-1.45605,.88281-3.10742,1.32324-4.95605,1.32324Z"/><path class="cls-3" d="M676.61084,344.53198v-28.05566h3.52734v10.37402c.58789-.98047,1.41406-1.80664,2.47852-2.47852,1.06348-.67188,2.47754-1.00781,4.24219-1.00781,2.51953,0,4.29688,.73535,5.33398,2.20508,1.03516,1.46973,1.55371,3.39551,1.55371,5.77441v13.18848h-3.52832v-12.1377c0-1.06445-.09863-2.05078-.29395-2.96094-.19629-.91016-.62305-1.64453-1.28125-2.20508s-1.6582-.83984-3.00293-.83984c-1.70801,0-3.05176,.58105-4.03125,1.74219-.98047,1.16211-1.4707,2.86328-1.4707,5.10352v11.29785h-3.52734Z"/><path class="cls-3" d="M709.70557,344.53198l10.54199-28.09766h4.41016l10.5,28.09766h-4.2002l-2.1416-6.13184h-12.76855l-2.1416,6.13184h-4.2002Zm7.56055-9.53418h10.33105l-5.16504-14.57422-5.16602,14.57422Z"/><path class="cls-3" d="M743.01123,344.53198c-1.31641,0-2.33008-.13281-3.04492-.39941-.71387-.26562-1.2041-.77637-1.46973-1.53223-.2666-.75684-.39844-1.84863-.39844-3.27637v-22.80566h3.52734v22.21777c0,1.06445,.11133,1.77832,.33594,2.1416,.22363,.36426,.82617,.5459,1.80664,.5459h.79785v3.1084h-1.55469Z"/><path class="cls-3" d="M753.51123,344.53198c-1.31641,0-2.33008-.13281-3.04492-.39941-.71387-.26562-1.2041-.77637-1.46973-1.53223-.2666-.75684-.39844-1.84863-.39844-3.27637v-22.80566h3.52734v22.21777c0,1.06445,.11133,1.77832,.33594,2.1416,.22363,.36426,.82617,.5459,1.80664,.5459h.79785v3.1084h-1.55469Z"/><path class="cls-3" d="M760.14893,344.53198v-18.01758h-2.89844v-2.81445h6.42676v20.83203h-3.52832Zm1.76367-24.78027c-.7002,0-1.30859-.25781-1.82715-.77637-.51758-.51855-.77637-1.14062-.77637-1.86914,0-.72754,.25879-1.34375,.77637-1.84863,.51855-.50391,1.12695-.75586,1.82715-.75586,.72754,0,1.35059,.25195,1.86914,.75586,.51758,.50488,.77734,1.12109,.77734,1.84863,0,.72852-.25977,1.35059-.77734,1.86914-.51855,.51855-1.1416,.77637-1.86914,.77637Z"/><path class="cls-3" d="M776.27686,345.03589c-1.31641,0-2.52051-.23828-3.6123-.71387s-1.95996-1.16113-2.60449-2.05762c-.64355-.89648-.96582-1.97461-.96582-3.23438,0-1.65137,.58105-2.9541,1.74316-3.90625,1.16211-.95117,2.7998-1.68652,4.91406-2.20508,2.11426-.51758,4.58496-.93066,7.41309-1.23828,.05566-1.76465-.29395-3.12207-1.0498-4.07422s-1.97461-1.42773-3.6543-1.42773c-1.25977,0-2.28906,.28711-3.08691,.86035-.79785,.57422-1.30957,1.36523-1.5332,2.37305l-3.40137-1.00781c.55957-1.5957,1.56055-2.83496,3.00293-3.7168,1.44141-.88184,3.10059-1.32324,4.97656-1.32324,2.88379,0,4.99121,.67871,6.32129,2.03711,1.3291,1.3584,1.99512,3.49316,1.99512,6.40527v4.87207c0,1.73633,.06934,3.2334,.20996,4.49316,.13965,1.26074,.30762,2.38086,.50391,3.36035h-3.23438l-.83984-2.85645c-.61621,1.03711-1.49805,1.85547-2.64551,2.45703-1.14844,.60254-2.63281,.90332-4.45215,.90332Zm.75586-2.81348c1.0918,0,2.12695-.19629,3.10742-.58887,.98047-.3916,1.77832-1.05566,2.39453-1.99414,.61523-.93848,.92383-2.21875,.92383-3.84375v-1.30176c-2.12793,.22461-3.97656,.49707-5.54395,.81934-1.56836,.32227-2.7793,.77051-3.63281,1.34375-.85449,.57422-1.28125,1.33789-1.28125,2.28906,0,.98047,.35742,1.77148,1.07129,2.37305,.71387,.60254,1.70117,.90332,2.96094,.90332Z"/><path class="cls-3" d="M792.99268,344.53198v-20.83203h2.60352l.92383,3.15039c.58789-.98047,1.41406-1.80664,2.47852-2.47852,1.06348-.67188,2.47754-1.00781,4.24219-1.00781,2.51953,0,4.29688,.73535,5.33398,2.20508,1.03516,1.46973,1.55371,3.39551,1.55371,5.77441v13.18848h-3.52832v-12.1377c0-1.06445-.09863-2.05078-.29395-2.96094-.19629-.91016-.62305-1.64453-1.28125-2.20508s-1.6582-.83984-3.00293-.83984c-1.70801,0-3.05176,.58105-4.03125,1.74219-.98047,1.16211-1.4707,2.86328-1.4707,5.10352v11.29785h-3.52734Z"/><path class="cls-3" d="M824.28174,345.03589c-1.98828,0-3.70996-.46875-5.16602-1.40723-1.45605-.9375-2.57617-2.21875-3.35938-3.84277-.78516-1.62305-1.17676-3.48633-1.17676-5.58594,0-2.07129,.41309-3.92676,1.23926-5.56543,.8252-1.6377,1.99512-2.9248,3.50684-3.86328s3.29004-1.40723,5.33398-1.40723c1.87598,0,3.48633,.46191,4.83008,1.38574s2.35254,2.03027,3.02441,3.31836l-3.23438,1.17578c-.44824-.83984-1.10645-1.51172-1.97363-2.01562-.86816-.50391-1.83496-.75586-2.89844-.75586-1.03613,0-2.01562,.27246-2.93945,.81836-.9248,.5459-1.66699,1.38574-2.22656,2.52051-.56055,1.13379-.83984,2.58301-.83984,4.34668,0,1.73633,.28711,3.18555,.86133,4.34668,.57324,1.16211,1.31543,2.02344,2.22559,2.58301,.91016,.56055,1.88281,.84082,2.91895,.84082,1.14844,0,2.14844-.25879,3.00293-.77734,.85449-.51758,1.50488-1.16895,1.95312-1.95312l3.23438,1.17578c-.78418,1.34375-1.9043,2.45703-3.36035,3.33887-1.45605,.88281-3.10742,1.32324-4.95605,1.32324Z"/><path class="cls-3" d="M846.24756,345.03589c-2.18359,0-4.03223-.48242-5.54395-1.44922-1.51172-.96582-2.66699-2.26758-3.46484-3.90527-.79785-1.63867-1.19727-3.47949-1.19727-5.52344,0-2.21191,.44824-4.12207,1.34473-5.7334,.89551-1.60938,2.10645-2.85547,3.63281-3.7373,1.52539-.88184,3.24023-1.32324,5.14453-1.32324,1.65234,0,3.1084,.3291,4.36816,.9873s2.30273,1.54004,3.12891,2.64551c.82617,1.10645,1.42773,2.35938,1.80664,3.75879,.37793,1.40039,.50977,2.84277,.39844,4.32617h-16.04395c.05566,1.73633,.44141,3.1084,1.15527,4.11621s1.56055,1.71582,2.54102,2.12109c.97949,.40625,1.88965,.60938,2.72949,.60938,1.17578,0,2.16309-.18945,2.96094-.56738s1.43457-.875,1.91113-1.49121l3.40234,1.00781c-.75586,1.2041-1.83398,2.19922-3.23438,2.98242s-3.08008,1.17578-5.04004,1.17578Zm-6.38379-12.76758h12.26367c0-.98047-.24512-1.91797-.73438-2.81445-.49023-.89551-1.17578-1.63086-2.05859-2.20508-.88184-.57324-1.93848-.86035-3.1709-.86035-1.03613,0-2.01562,.19531-2.93945,.58789-.9248,.39258-1.6875,1.02246-2.28906,1.88965-.60254,.86816-.95996,2.00195-1.07129,3.40234Z"/></g></svg>